<?xml version="1.0" standalone="no"?>
<!DOCTYPE svg PUBLIC "-//W3C//DTD SVG 20010904//EN"
 "http://www.w3.org/TR/2001/REC-SVG-20010904/DTD/svg10.dtd">
<svg version="1.0" xmlns="http://www.w3.org/2000/svg"
 width="985.000000pt" height="1024.000000pt" viewBox="0 0 985.000000 1024.000000"
 preserveAspectRatio="xMidYMid meet">

<g transform="translate(0.000000,1024.000000) scale(0.100000,-0.100000)"
fill="#000000" stroke="none">
<path d="M2009 10230 c-24 -7 -1846 -1051 -1932 -1107 -23 -14 -46 -41 -58
-66 -18 -41 -19 -121 -19 -3308 l0 -3266 23 -43 c22 -42 45 -57 572 -360 303
-174 1167 -672 1920 -1106 l1370 -789 60 0 60 0 1900 1094 c1045 601 1915
1108 1933 1126 20 18 37 48 42 71 6 22 10 491 10 1074 l0 1035 827 475 c1115
640 1021 584 1044 633 18 40 19 84 19 1150 0 1084 0 1109 -20 1147 -11 21 -32
47 -47 58 -71 49 -1920 1105 -1949 1114 -21 5 -47 5 -67 0 -18 -5 -150 -77
-293 -159 -142 -83 -547 -315 -899 -518 -777 -446 -781 -448 -803 -488 -16
-30 -17 -111 -22 -1091 l-5 -1059 -785 -452 -785 -452 -5 2051 c-4 1528 -8
2056 -17 2071 -6 11 -22 29 -35 41 -26 23 -1892 1098 -1944 1120 -37 15 -56
16 -95 4z m839 -785 c429 -247 778 -453 774 -457 -4 -3 -359 -208 -789 -456
l-782 -449 -785 451 c-432 248 -784 455 -783 459 4 13 1560 907 1573 904 5 -1
362 -204 792 -452z m5682 -1072 c428 -247 776 -451 772 -455 -4 -4 -359 -209
-789 -457 l-782 -450 -785 452 c-432 249 -785 456 -783 460 5 15 1562 906
1575 902 7 -3 364 -206 792 -452z m-7420 -107 l785 -452 5 -2146 5 -2147 21
-28 c23 -31 49 -46 1109 -646 l750 -424 3 -907 c2 -761 0 -907 -11 -904 -8 2
-791 450 -1741 997 l-1726 994 0 3058 c0 1683 3 3059 8 3058 4 0 360 -204 792
-453z m2680 -1525 l0 -1979 -207 -120 c-903 -520 -1346 -774 -1358 -779 -13
-4 -15 240 -15 1974 l0 1978 783 452 c430 248 785 452 790 452 4 1 7 -890 7
-1978z m2997 455 l788 -453 3 -897 c1 -631 -1 -896 -9 -896 -5 0 -363 203
-795 451 l-784 452 0 898 c0 495 2 899 4 899 2 0 359 -204 793 -454z m2681
-447 l-3 -901 -780 -449 c-429 -247 -783 -449 -787 -449 -5 0 -8 404 -8 898
l0 897 783 451 c430 249 785 452 790 453 4 1 6 -404 5 -900z m-2838 -1623
c426 -246 776 -450 777 -454 1 -4 -230 -139 -515 -301 -284 -162 -926 -528
-1427 -814 -500 -286 -1048 -598 -1216 -693 l-305 -174 -780 441 c-428 242
-782 444 -786 448 -9 8 3453 2003 3467 1997 6 -2 359 -205 785 -450z m950
-1624 l0 -899 -492 -283 c-271 -156 -1028 -592 -1683 -968 -654 -377 -1215
-699 -1245 -718 l-55 -33 -3 907 c-2 859 -2 908 15 920 26 19 3446 1971 3456
1972 4 0 7 -404 7 -898z"/>
</g>
</svg>
