<?xml version="1.0" standalone="no"?>
<!DOCTYPE svg PUBLIC "-//W3C//DTD SVG 20010904//EN"
 "http://www.w3.org/TR/2001/REC-SVG-20010904/DTD/svg10.dtd">
<svg version="1.0" xmlns="http://www.w3.org/2000/svg"
 width="500.000000pt" height="500.000000pt" viewBox="0 0 500.000000 500.000000"
 preserveAspectRatio="xMidYMid meet">

<g transform="translate(0.000000,500.000000) scale(0.100000,-0.100000)"
fill="#000000" stroke="none">
<path d="M2744 3680 c-15 -6 -15 -8 -1 -22 9 -9 13 -18 10 -22 -4 -3 0 -6 7
-6 9 0 11 -3 4 -10 -6 -6 -121 -12 -279 -15 -406 -7 -546 -22 -881 -95 -189
-42 -440 -124 -564 -186 -39 -19 -82 -39 -93 -43 -40 -15 -217 -130 -286 -185
-38 -30 -99 -89 -137 -131 -37 -41 -71 -75 -75 -75 -5 0 -12 15 -17 32 l-8 33
-25 -29 c-13 -16 -29 -34 -35 -40 -34 -36 -100 -222 -109 -311 -13 -115 42
-303 122 -423 242 -358 788 -630 1493 -741 373 -59 962 -53 1320 14 723 136
1246 429 1435 805 57 113 75 186 75 302 0 239 -127 460 -374 651 -290 225
-696 381 -1231 472 -73 12 -333 31 -351 25z m-236 -323 c3 -40 -8 -117 -34
-234 -4 -23 -3 -23 111 -23 190 0 347 -43 396 -109 12 -16 27 -27 32 -24 6 3
7 2 4 -4 -3 -5 0 -31 8 -58 21 -67 19 -94 -14 -262 -15 -82 -39 -204 -51 -273
-13 -69 -30 -147 -39 -175 l-16 -50 -158 -3 c-196 -3 -189 -10 -153 158 14 63
40 198 58 299 39 225 47 211 -123 211 l-117 0 -17 -97 c-9 -54 -30 -158 -46
-231 -16 -74 -36 -174 -44 -224 -8 -50 -20 -96 -26 -104 -9 -11 -45 -14 -159
-14 -182 0 -179 -2 -161 108 7 42 15 87 18 100 4 17 -10 7 -52 -37 -67 -70
-119 -103 -219 -138 -62 -22 -93 -26 -246 -30 l-175 -5 -29 -137 c-16 -75 -33
-144 -38 -153 -8 -16 -26 -18 -158 -18 -122 0 -151 3 -164 16 -9 8 -16 18 -16
22 0 6 36 187 125 637 42 208 54 271 79 419 16 88 31 145 42 157 16 18 35 19
302 19 230 0 299 -3 351 -16 137 -34 212 -86 272 -189 28 -49 29 -49 29 -19 0
17 9 66 20 109 11 43 29 130 40 194 29 174 31 184 47 209 13 22 17 22 166 20
l152 -3 3 -48z m1286 -277 c44 -12 97 -30 118 -41 48 -24 111 -89 138 -141 43
-82 46 -264 5 -378 -40 -113 -159 -256 -255 -305 -101 -52 -169 -66 -347 -72
l-172 -5 -11 -57 c-25 -123 -51 -225 -61 -238 -9 -10 -48 -13 -155 -13 -168 0
-180 5 -170 77 3 24 12 64 20 91 8 26 28 130 45 232 18 102 38 208 46 235 8
28 21 91 29 140 44 270 85 455 106 481 10 12 62 14 299 14 257 0 295 -2 365
-20z m527 -7 c13 -16 12 -17 -3 -4 -17 13 -22 21 -14 21 2 0 10 -8 17 -17z
m286 -565 c-2 -13 -4 -3 -4 22 0 25 2 35 4 23 2 -13 2 -33 0 -45z m-187 -422
c0 -2 -8 -10 -17 -17 -16 -13 -17 -12 -4 4 13 16 21 21 21 13z m-1403 -592
c-3 -3 -12 -4 -19 -1 -8 3 -5 6 6 6 11 1 17 -2 13 -5z m-980 -10 c-3 -3 -12
-4 -19 -1 -8 3 -5 6 6 6 11 1 17 -2 13 -5z m906 -1 c-7 -2 -21 -2 -30 0 -10 3
-4 5 12 5 17 0 24 -2 18 -5z m-100 -10 c-7 -2 -19 -2 -25 0 -7 3 -2 5 12 5 14
0 19 -2 13 -5z"/>
<path d="M2171 3098 c-145 -745 -171 -881 -171 -894 0 -11 25 -14 123 -14
l124 0 26 128 c15 70 43 213 62 317 20 105 38 198 41 208 5 17 18 18 156 15
l150 -3 24 -28 c13 -15 24 -39 24 -53 0 -20 -85 -472 -105 -561 -5 -23 -5 -23
124 -23 l130 0 10 53 c113 567 119 619 78 692 -17 31 -39 48 -91 75 l-69 35
-193 4 c-172 3 -194 5 -194 20 0 9 12 72 25 141 14 69 25 131 25 138 0 9 -31
12 -124 12 l-123 0 -52 -262z"/>
<path d="M1157 3043 c-2 -5 -7 -26 -11 -48 -4 -22 -27 -141 -51 -265 -24 -124
-69 -355 -100 -515 -30 -159 -58 -300 -60 -312 -5 -23 -5 -23 124 -23 l129 0
29 153 28 152 195 6 c107 4 213 12 235 19 154 47 285 171 337 317 43 122 42
268 -2 353 -39 76 -128 138 -228 159 -59 12 -618 16 -625 4z m525 -193 c45
-13 85 -58 94 -107 4 -20 1 -66 -5 -102 -23 -122 -67 -193 -145 -233 -66 -34
-344 -51 -339 -21 1 6 21 112 44 235 23 122 46 229 53 237 8 11 36 13 136 8
69 -3 142 -11 162 -17z"/>
<path d="M1410 2802 c0 -10 -14 -88 -31 -173 -18 -85 -34 -166 -36 -181 l-5
-28 68 0 c94 0 188 18 226 44 52 35 91 125 96 221 4 70 2 82 -15 97 -26 24
-107 38 -214 38 -80 0 -89 -2 -89 -18z"/>
<path d="M3130 2933 c-12 -65 -39 -206 -60 -313 -69 -346 -140 -717 -140 -729
0 -8 35 -11 128 -9 l127 3 21 115 c11 63 24 132 28 153 l7 37 157 0 c86 0 186
5 222 11 97 15 197 69 267 142 78 81 109 136 134 237 54 212 -12 375 -180 442
-53 22 -71 23 -372 26 l-317 3 -22 -118z m563 -91 c74 -33 96 -98 73 -209 -28
-137 -84 -209 -183 -239 -57 -17 -287 -31 -296 -18 -3 5 1 41 8 79 8 39 28
144 45 235 17 90 34 168 37 174 4 5 61 7 139 3 101 -4 143 -10 177 -25z"/>
<path d="M3408 2815 c-5 -5 -8 -20 -8 -34 0 -14 -15 -101 -34 -193 l-33 -168
66 0 c84 0 171 14 215 35 49 24 92 98 107 188 15 92 6 136 -35 156 -32 15
-266 28 -278 16z m309 -137 c-3 -8 -6 -5 -6 6 -1 11 2 17 5 13 3 -3 4 -12 1
-19z"/>
</g>
</svg>
